<svg xmlns="http://www.w3.org/2000/svg" width="14.55" height="17.46" viewBox="0 0 14.55 17.46"><defs><style>.a{fill:#f2f2f2;}</style></defs><path class="a" d="M10.4.135A.455.455,0,0,0,10.078,0H2.913A2.366,2.366,0,0,0,.5,2.29V15.17a2.366,2.366,0,0,0,2.413,2.29h9.724a2.366,2.366,0,0,0,2.413-2.29V4.943a.443.443,0,0,0-.129-.3Zm.129,1.354,3.03,3.024h-1.97a1.032,1.032,0,0,1-1.06-1Zm2.112,15.128H2.913A1.5,1.5,0,0,1,1.387,15.17V2.29A1.5,1.5,0,0,1,2.913.843H9.638V3.509a1.9,1.9,0,0,0,1.947,1.847h2.577V15.17A1.5,1.5,0,0,1,12.637,16.617Zm0,0" transform="translate(-0.5 0)"/><path class="a" d="M96.037,401.934H89.565a.49.49,0,0,0,0,.961h6.476a.489.489,0,0,0,0-.961Zm0,0" transform="translate(-85.817 -389.285)"/><path class="a" d="M121.739,177.569a.525.525,0,0,0,.742,0l2.98-3.021a.46.46,0,0,0-.025-.677.528.528,0,0,0-.717.024l-2.1,2.128v-5.245a.509.509,0,0,0-1.017,0v5.245l-2.1-2.128a.528.528,0,0,0-.717-.024.46.46,0,0,0-.025.677Zm0,0" transform="translate(-115.127 -165.932)"/></svg>