<svg xmlns="http://www.w3.org/2000/svg" viewBox="0 0 512 450"><defs><style>.cls-1{fill:#fff;}</style></defs><title>Recurso 1</title><g id="Capa_2" data-name="Capa 2"><g id="Capa_1-2" data-name="Capa 1"><path class="cls-1" d="M165,300H437a15,15,0,0,0,14.42-10.88l60-210A15,15,0,0,0,497,60H130.37L119.64,11.75A15,15,0,0,0,105,0H15a15,15,0,0,0,0,30H93l54.16,243.71A45,45,0,0,0,165,360H437a15,15,0,0,0,0-30H165a15,15,0,0,1,0-30ZM477.11,90,425.68,270H177L137,90Z"/><path class="cls-1" d="M150,405a45,45,0,1,0,45-45A45.05,45.05,0,0,0,150,405Zm45-15a15,15,0,1,1-15,15A15,15,0,0,1,195,390Z"/><path class="cls-1" d="M362,405a45,45,0,1,0,45-45A45.05,45.05,0,0,0,362,405Zm45-15a15,15,0,1,1-15,15A15,15,0,0,1,407,390Z"/></g></g></svg>